<?xml version="1.0" standalone="no"?>
<!DOCTYPE svg PUBLIC "-//W3C//DTD SVG 20010904//EN"
 "http://www.w3.org/TR/2001/REC-SVG-20010904/DTD/svg10.dtd">
<svg version="1.0" xmlns="http://www.w3.org/2000/svg"
 width="500.000000pt" height="500.000000pt" viewBox="0 0 500.000000 500.000000"
 preserveAspectRatio="xMidYMid meet">
<metadata>
Created by potrace 1.14, written by Peter Selinger 2001-2017
</metadata>
<g transform="translate(0.000000,500.000000) scale(0.100000,-0.100000)"
fill="#000000" stroke="none">
<path d="M765 4480 c-3 -5 -16 -10 -28 -10 -35 0 -122 -7 -127 -10 -3 -1 -8
-2 -13 -1 -4 0 -6 -2 -5 -6 0 -5 -7 -26 -17 -48 -10 -22 -18 -46 -18 -52 0 -7
-4 -13 -9 -13 -5 0 -7 -4 -3 -9 3 -5 1 -12 -5 -16 -5 -3 -10 -15 -10 -26 0
-11 -6 -22 -14 -25 -8 -3 -13 -13 -12 -21 2 -9 -6 -34 -16 -55 -10 -21 -16
-44 -12 -50 4 -7 3 -8 -4 -4 -8 5 -12 0 -12 -13 0 -12 -5 -21 -11 -21 -5 0 -7
-5 -3 -11 3 -6 1 -15 -5 -19 -7 -4 -13 -17 -14 -28 -1 -12 -5 -22 -10 -22 -5
0 -7 -6 -4 -14 3 -8 0 -16 -6 -19 -7 -3 -14 -18 -15 -33 -1 -16 -7 -30 -12
-32 -6 -2 -10 -12 -10 -23 0 -10 -4 -19 -10 -19 -5 0 -7 -7 -4 -15 4 -8 1 -15
-6 -15 -9 0 -9 -4 1 -17 10 -11 10 -14 1 -9 -13 8 -36 -39 -26 -55 3 -5 1 -9
-5 -9 -9 0 -23 -29 -19 -40 1 -3 -4 -15 -11 -27 -10 -19 -9 -23 4 -24 27 -3
55 -6 63 -9 4 -2 12 -4 17 -5 6 -2 162 -3 348 -4 374 -1 357 2 321 -66 -9 -16
-22 -47 -30 -68 -7 -20 -20 -53 -29 -72 -8 -19 -22 -50 -30 -69 -8 -19 -15
-41 -15 -50 0 -9 -5 -16 -11 -16 -6 0 -9 -6 -6 -14 3 -8 0 -20 -8 -26 -8 -6
-11 -19 -8 -27 4 -11 2 -14 -5 -9 -8 5 -12 0 -12 -14 0 -12 -7 -34 -15 -49 -8
-16 -11 -31 -8 -34 3 -4 -1 -9 -10 -13 -9 -3 -13 -12 -10 -20 3 -8 1 -14 -5
-14 -5 0 -13 -16 -16 -35 -4 -19 -11 -35 -16 -35 -6 0 -9 -3 -8 -7 1 -5 -4
-24 -11 -43 -8 -19 -15 -42 -17 -50 -2 -8 -7 -16 -13 -18 -5 -2 -8 -9 -5 -17
3 -7 1 -16 -5 -20 -6 -3 -11 -15 -11 -26 0 -10 -5 -19 -10 -19 -6 0 -10 -6 -9
-12 2 -20 -12 -58 -22 -58 -4 0 -6 -9 -4 -20 2 -11 0 -20 -6 -20 -5 0 -9 -7
-9 -15 0 -8 -4 -15 -9 -15 -4 0 -8 -8 -8 -17 0 -10 -10 -40 -22 -66 -12 -26
-23 -56 -24 -67 -1 -10 -6 -18 -12 -17 -5 1 -9 -4 -7 -11 1 -7 -7 -34 -19 -60
-12 -26 -21 -48 -20 -50 1 -1 -6 -16 -14 -32 -8 -16 -14 -32 -13 -35 2 -2 -4
-13 -13 -23 -9 -10 -15 -26 -13 -35 1 -9 -2 -17 -7 -17 -5 0 -9 -7 -9 -15 0
-8 -11 -39 -24 -69 -13 -30 -22 -57 -18 -60 3 -3 0 -6 -6 -6 -7 0 -12 -9 -12
-20 0 -11 -5 -20 -11 -20 -5 0 -7 -4 -4 -10 3 -5 1 -10 -4 -10 -6 0 -10 -3 -9
-7 4 -15 -20 -79 -48 -134 -7 -14 -11 -29 -7 -33 3 -3 1 -6 -6 -6 -7 0 -10 -4
-6 -9 3 -5 1 -12 -5 -16 -6 -4 -8 -10 -5 -15 3 -5 -2 -15 -10 -24 -8 -8 -15
-19 -14 -23 1 -4 -3 -21 -9 -36 -7 -16 -12 -33 -12 -38 0 -5 -4 -9 -9 -9 -8 0
-25 -56 -22 -72 0 -5 -4 -8 -10 -8 -5 0 -8 -4 -4 -9 3 -5 0 -15 -7 -23 -7 -7
-14 -20 -16 -28 -2 -8 -7 -16 -12 -18 -4 -2 -6 -12 -3 -22 3 -12 0 -20 -6 -20
-7 0 -9 -5 -6 -10 3 -6 1 -10 -5 -10 -6 0 -9 -4 -5 -9 3 -5 1 -12 -5 -16 -6
-4 -8 -10 -5 -15 3 -5 1 -11 -5 -15 -6 -4 -8 -11 -5 -16 4 -5 1 -9 -6 -9 -7 0
-9 -3 -6 -6 4 -4 0 -19 -7 -33 -21 -40 -40 -85 -41 -96 0 -5 -5 -17 -10 -25
-5 -8 -10 -18 -11 -22 -1 -5 -3 -10 -4 -13 -1 -3 -3 -8 -4 -12 -1 -5 -12 -30
-25 -58 -13 -27 -25 -54 -26 -60 -11 -43 -9 -50 18 -53 36 -4 1140 -4 1162 0
20 3 58 65 49 79 -3 5 -1 9 4 9 8 0 23 37 26 63 1 4 6 11 11 15 6 4 12 16 14
27 1 11 8 29 14 40 6 11 10 26 9 33 -2 6 3 12 9 12 7 0 10 3 7 6 -4 3 0 17 7
31 8 15 12 30 9 35 -3 4 0 8 5 8 6 0 11 8 11 18 0 10 5 23 12 30 7 7 8 12 3
12 -4 0 -1 8 9 19 9 10 18 27 20 38 2 10 11 35 19 55 9 20 13 39 9 42 -3 3 0
6 6 6 7 0 12 9 12 20 0 11 5 20 11 20 6 0 9 6 6 14 -3 7 0 19 6 25 6 6 12 16
13 23 1 7 8 27 15 43 7 17 12 33 11 38 -1 4 2 7 7 7 7 0 20 43 21 65 0 19 48
43 51 26 1 -3 3 -15 5 -26 4 -26 12 -60 14 -60 2 0 11 -54 12 -72 1 -7 5 -13
9 -13 4 0 6 -11 4 -25 -1 -14 2 -25 7 -25 6 0 8 -7 5 -15 -4 -8 -2 -17 4 -20
5 -4 7 -11 3 -16 -3 -5 -1 -15 4 -22 5 -7 8 -20 7 -30 -2 -9 0 -17 4 -17 4 0
8 -6 9 -12 3 -36 9 -65 17 -77 6 -10 4 -12 -6 -6 -11 6 -12 5 -1 -6 6 -7 12
-23 12 -36 0 -13 4 -23 8 -23 4 0 9 -10 9 -22 4 -55 9 -78 16 -78 5 0 5 -4 2
-10 -3 -5 -2 -10 4 -10 6 0 8 -7 5 -15 -4 -8 -2 -21 4 -28 10 -12 12 -17 12
-40 0 -7 11 -24 24 -39 14 -14 22 -29 18 -32 -3 -4 1 -4 10 -1 10 4 26 0 38
-8 14 -10 33 -12 65 -7 25 4 47 4 50 2 8 -8 45 -10 45 -3 0 4 16 6 35 5 40 -2
100 27 128 62 10 13 23 22 28 18 5 -3 8 -1 7 4 -3 11 139 152 153 152 5 0 8 3
7 8 -3 9 61 72 73 72 6 0 8 3 6 8 -6 9 39 52 47 45 3 -4 6 1 6 10 0 8 9 19 20
22 11 4 19 9 17 13 -5 9 30 42 36 35 3 -2 8 5 12 16 3 12 12 21 20 21 8 0 16
9 20 19 3 11 15 23 25 26 10 3 22 15 25 26 4 10 11 19 16 19 17 0 90 81 83 92
-4 6 -3 8 3 5 6 -4 38 20 72 53 51 49 65 57 76 47 7 -6 9 -13 5 -15 -5 -2 -6
-10 -3 -19 4 -11 2 -14 -5 -9 -8 4 -12 0 -12 -11 0 -10 -7 -29 -16 -41 -8 -12
-13 -26 -9 -31 3 -5 -1 -15 -8 -23 -8 -7 -12 -19 -9 -26 2 -6 -1 -12 -8 -12
-6 0 -9 -4 -5 -9 3 -5 1 -12 -5 -16 -6 -4 -8 -11 -5 -16 4 -5 1 -9 -6 -9 -7 0
-9 -3 -6 -7 4 -3 0 -17 -8 -30 -9 -13 -13 -23 -9 -23 4 0 1 -7 -6 -15 -6 -8
-9 -19 -5 -25 3 -5 1 -10 -4 -10 -6 0 -11 -9 -11 -20 0 -11 -4 -20 -10 -20 -5
0 -9 -3 -8 -7 1 -5 -6 -25 -15 -47 -9 -21 -17 -42 -17 -47 0 -5 -6 -9 -12 -9
-9 0 -8 -3 2 -10 13 -8 13 -10 -1 -15 -8 -3 -15 -15 -16 -26 -1 -12 -10 -31
-20 -42 -10 -11 -13 -17 -6 -14 6 4 0 -17 -14 -45 -14 -29 -26 -59 -26 -65 0
-7 -4 -13 -8 -13 -5 0 -6 -6 -3 -14 3 -8 1 -17 -5 -21 -6 -3 -11 -15 -11 -26
0 -11 -4 -18 -8 -15 -4 2 -9 -5 -9 -16 -1 -12 -8 -25 -15 -29 -7 -5 -10 -9 -6
-9 4 0 -3 -26 -16 -58 -34 -81 -39 -96 -38 -104 1 -5 -3 -8 -8 -8 -5 0 -9 -3
-8 -7 2 -10 -8 -37 -30 -83 -9 -19 -16 -41 -15 -47 0 -7 -3 -13 -8 -13 -5 0
-8 -3 -7 -7 1 -5 -3 -19 -9 -33 -6 -14 -18 -42 -26 -62 -15 -35 -15 -39 2 -48
10 -5 21 -6 25 -3 3 3 6 1 6 -5 0 -9 137 -12 546 -12 357 0 543 3 539 10 -3 5
0 8 7 5 16 -6 63 17 64 30 0 6 8 26 16 45 9 19 14 38 12 42 -3 5 -1 8 4 8 5 0
15 20 22 44 7 25 18 47 25 49 6 3 11 16 10 29 -1 12 2 26 7 29 5 3 10 16 11
27 1 12 5 22 9 22 4 0 8 9 8 20 0 11 5 20 11 20 6 0 9 7 5 15 -3 8 -1 15 4 15
6 0 10 9 10 19 0 10 7 22 16 25 12 4 13 10 6 19 -12 14 10 52 22 40 4 -4 4 0
1 8 -3 8 1 28 9 44 8 16 13 32 10 37 -3 4 -1 8 4 8 9 0 27 47 24 63 -1 4 3 7
8 7 5 0 9 3 8 8 -1 4 4 18 12 32 7 14 12 25 11 25 -2 0 8 28 30 80 7 17 12 33
11 38 -1 4 2 7 7 7 5 0 8 8 7 17 -2 10 3 24 11 31 7 8 11 17 8 22 -3 4 2 13 9
20 8 6 13 20 11 31 -2 11 0 17 6 14 5 -4 9 0 9 8 0 8 8 32 17 53 9 22 16 42
15 47 -1 4 3 7 8 7 5 0 9 3 8 8 -1 4 4 20 10 35 7 16 9 33 6 39 -4 6 -2 8 3 5
6 -4 16 12 23 38 7 25 16 45 21 45 5 0 6 7 3 15 -4 8 -1 15 6 15 7 0 9 8 4 23
-3 12 -3 19 2 14 7 -7 39 50 36 66 -1 4 9 25 23 47 15 24 21 41 14 45 -6 4 -3
12 8 21 10 7 15 14 10 14 -4 0 -1 13 7 29 9 16 12 31 9 35 -4 3 -2 6 4 6 6 0
14 12 18 27 3 15 11 31 17 34 6 4 10 18 11 33 0 14 3 23 7 21 5 -3 7 3 5 12
-1 10 4 25 12 34 7 9 16 27 18 40 3 13 9 25 15 27 6 2 8 7 5 12 -3 4 3 25 12
46 9 22 16 42 15 47 -1 4 2 7 7 7 5 0 13 15 16 33 4 17 10 34 14 37 12 10 32
52 22 46 -7 -4 -8 -1 -5 8 3 9 9 16 13 16 4 0 8 10 8 22 1 13 7 24 13 26 5 2
8 8 4 13 -3 5 2 19 10 31 9 12 16 32 16 44 0 12 7 24 15 28 8 3 12 12 9 21 -3
8 -1 15 6 15 6 0 9 4 5 9 -3 5 -1 12 5 16 6 4 8 11 5 16 -4 5 -1 9 5 9 6 0 9
4 5 9 -3 5 0 13 6 16 5 4 8 13 5 20 -2 7 2 16 11 19 9 4 13 9 10 13 -4 3 -2
12 4 19 6 8 9 21 5 29 -3 9 -2 13 4 10 6 -3 10 3 10 14 0 12 5 21 11 21 6 0 9
9 6 20 -3 10 -1 20 5 22 5 2 11 10 13 18 8 38 18 60 26 60 5 0 8 3 8 8 -1 4 0
10 1 15 1 4 4 12 5 17 1 6 4 12 5 15 1 3 3 8 5 13 1 4 7 21 14 37 7 17 12 32
12 35 0 3 8 14 17 24 13 15 13 17 2 11 -9 -5 -8 0 4 13 11 12 16 22 11 22 -4
0 0 11 9 25 9 14 14 25 11 25 -3 0 1 13 10 30 8 16 15 32 15 35 -1 22 1 25 10
20 6 -4 10 -3 8 2 -4 17 14 73 22 68 5 -3 7 3 5 14 -2 11 3 25 11 31 7 7 11
16 8 21 -3 5 -1 9 5 9 6 0 8 6 5 14 -3 8 0 17 5 21 6 3 9 11 6 16 -4 5 -1 9 4
9 6 0 11 9 11 19 0 11 6 26 13 33 6 7 14 20 16 28 7 30 8 35 20 67 7 17 21 48
31 68 10 20 17 42 14 48 -8 21 -58 43 -96 41 -21 -1 -36 2 -33 5 7 13 -718 10
-734 -3 -12 -8 -13 -8 -7 2 4 6 2 12 -3 12 -6 0 -11 -3 -11 -7 0 -5 -15 -8
-32 -7 -18 1 -50 -5 -71 -12 -20 -7 -39 -13 -42 -14 -3 0 -6 0 -7 -1 -2 0 -14
-2 -27 -5 -14 -2 -30 -9 -38 -15 -7 -6 -13 -8 -13 -4 0 4 -7 2 -15 -5 -8 -7
-15 -9 -15 -5 0 5 -9 0 -20 -10 -11 -10 -20 -15 -20 -10 0 4 -7 2 -15 -5 -8
-7 -15 -9 -15 -4 0 5 -4 4 -8 -2 -4 -5 -23 -20 -42 -32 -19 -11 -47 -33 -62
-47 -15 -14 -32 -25 -38 -25 -5 0 -10 -7 -10 -16 0 -8 -4 -13 -9 -9 -5 3 -12
-4 -16 -15 -4 -11 -11 -18 -16 -15 -5 4 -9 1 -9 -5 0 -6 -4 -8 -10 -5 -5 3
-10 1 -10 -5 0 -5 -14 -24 -30 -42 -17 -17 -30 -27 -30 -22 0 5 -8 -3 -18 -19
-10 -15 -21 -25 -24 -21 -4 3 -9 -4 -13 -15 -3 -12 -10 -21 -15 -21 -14 0 -95
-81 -92 -91 1 -5 -2 -8 -7 -7 -5 2 -27 -16 -50 -40 -23 -24 -41 -40 -41 -35 0
4 -12 -7 -26 -25 -15 -17 -30 -29 -35 -26 -5 3 -9 1 -9 -5 0 -15 -46 -62 -53
-54 -4 3 -7 1 -7 -7 0 -13 -59 -70 -72 -70 -5 0 -8 -7 -8 -15 0 -8 -4 -15 -9
-15 -5 0 -39 -28 -75 -62 -36 -35 -79 -75 -95 -90 -16 -14 -27 -29 -24 -32 4
-3 -1 -6 -10 -6 -8 0 -18 -9 -22 -20 -3 -11 -9 -19 -13 -17 -4 1 -28 -18 -52
-43 -24 -25 -48 -44 -52 -43 -4 2 -9 -6 -13 -16 -3 -10 -16 -24 -30 -31 -13
-7 -21 -18 -18 -23 4 -6 0 -8 -11 -4 -9 4 -14 3 -11 -2 6 -10 -11 -24 -32 -27
-12 -2 -29 32 -25 49 1 4 -3 7 -9 7 -5 0 -8 4 -4 9 3 5 1 12 -3 15 -5 3 -7 17
-4 31 3 16 0 25 -8 25 -7 0 -10 7 -6 15 3 8 1 15 -4 15 -5 0 -7 7 -4 15 4 8 1
15 -6 15 -6 0 -10 6 -7 13 2 6 -1 26 -8 44 -8 17 -11 34 -7 37 3 3 -1 6 -9 6
-11 0 -11 2 1 10 11 7 11 10 2 10 -7 0 -10 5 -7 10 4 6 2 17 -5 24 -10 13 -14
25 -26 91 -3 16 -10 35 -16 42 -6 7 -7 13 -3 13 4 0 2 7 -5 15 -7 8 -10 15 -7
15 4 0 0 18 -8 40 -8 22 -12 40 -8 40 3 0 0 6 -6 14 -6 8 -11 18 -10 22 4 20
-14 74 -25 74 -6 0 -4 5 4 10 12 8 12 10 1 10 -8 0 -11 3 -8 7 4 3 1 13 -6 21
-10 13 -9 14 3 7 13 -7 13 -6 2 7 -16 21 -25 65 -14 72 5 3 174 6 375 6 230 1
369 5 373 11 3 6 16 9 27 8 32 -3 57 11 57 30 0 9 7 26 15 37 8 12 16 34 19
50 3 16 10 30 16 32 5 2 10 8 10 13 0 6 -5 7 -11 4 -6 -4 -5 2 3 14 7 12 16
21 21 21 4 0 6 3 4 8 -3 4 3 24 13 45 10 21 21 51 25 67 4 17 11 30 16 30 6 0
8 3 6 8 -3 4 4 25 15 47 11 22 21 49 23 59 3 11 8 22 13 25 4 3 7 13 7 21 0 8
3 17 7 20 4 3 9 15 11 25 2 11 11 34 20 51 9 17 13 34 10 38 -4 3 -1 6 6 6 7
0 9 5 6 10 -3 6 -2 10 2 10 5 0 10 10 10 22 1 13 8 27 15 33 14 11 17 49 5 62
-4 4 -39 8 -78 9 -38 1 -73 5 -77 9 -4 5 -1 5 6 1 6 -4 12 -2 12 3 0 15 -2516
15 -2525 1z"/>
</g>
</svg>
